<?xml version="1.0" standalone="no"?>
<!DOCTYPE svg PUBLIC "-//W3C//DTD SVG 20010904//EN"
 "http://www.w3.org/TR/2001/REC-SVG-20010904/DTD/svg10.dtd">
<svg version="1.0" xmlns="http://www.w3.org/2000/svg"
 width="600.000000pt" height="600.000000pt" viewBox="0 0 600.000000 600.000000"
 preserveAspectRatio="xMidYMid meet">
<metadata>
Created by potrace 1.14, written by Peter Selinger 2001-2017
</metadata>
<g transform="translate(0.000000,600.000000) scale(0.100000,-0.100000)"
fill="#000000" stroke="none">
<path d="M2570 4873 c-14 -2 -65 -11 -114 -19 -332 -55 -664 -293 -782 -560
-103 -234 -70 -516 99 -851 46 -90 246 -365 338 -463 8 -9 24 -27 37 -41 l22
-26 -133 -184 c-73 -101 -176 -242 -227 -312 l-95 -128 -12 28 c-7 15 -28 73
-47 128 -31 91 -53 156 -162 470 -20 55 -50 143 -69 195 -18 52 -54 156 -80
230 -26 74 -64 185 -85 245 -21 61 -57 164 -80 230 -40 114 -67 191 -144 413
-36 102 -99 283 -162 466 -39 113 -62 148 -109 166 -17 7 -144 10 -350 10
l-322 -1 -36 -30 c-46 -38 -63 -86 -47 -136 13 -40 135 -395 200 -578 21 -60
62 -177 90 -260 28 -82 55 -159 60 -170 4 -11 17 -47 28 -80 44 -129 124 -361
132 -380 5 -11 20 -54 33 -95 14 -41 57 -167 97 -280 111 -318 150 -432 165
-475 7 -22 43 -125 80 -230 37 -104 73 -208 80 -230 7 -22 39 -112 70 -200 31
-88 65 -185 75 -215 109 -325 121 -350 180 -374 57 -23 559 -24 613 -1 36 15
53 34 157 181 30 42 124 170 208 283 84 113 207 281 274 373 l121 167 46 -62
c24 -34 49 -66 53 -72 35 -42 420 -571 538 -738 108 -153 91 -147 430 -147
252 0 277 2 314 20 23 11 47 29 55 41 11 18 122 326 166 464 8 22 41 119 75
215 34 96 68 193 75 215 13 39 109 318 240 690 36 105 77 222 90 260 22 66
148 428 202 580 13 39 26 77 29 85 2 8 24 74 50 145 25 72 47 135 48 140 1 6
4 15 8 20 3 6 10 26 16 45 5 19 40 121 77 225 172 492 168 475 137 535 -36 68
-49 70 -405 70 -335 0 -348 -2 -389 -47 -14 -15 -108 -270 -168 -453 -8 -23
-120 -343 -177 -505 -13 -38 -26 -77 -28 -85 -2 -8 -47 -139 -100 -290 -116
-330 -272 -779 -392 -1129 l-26 -74 -24 29 c-34 42 -198 265 -325 442 l-109
154 36 44 c20 24 42 49 48 56 7 7 47 56 89 108 359 452 469 884 307 1203 -45
89 -80 136 -157 211 -170 167 -420 298 -615 322 -23 3 -49 7 -57 10 -20 7
-229 13 -260 7z m171 -811 c15 -6 39 -23 54 -38 24 -24 26 -31 20 -73 -4 -25
-20 -72 -37 -106 -32 -63 -95 -155 -106 -155 -13 0 -93 126 -117 186 -42 100
-29 150 47 184 41 18 95 19 139 2z"/>
<path d="M5418 2030 c-344 -90 -459 -513 -209 -767 125 -128 303 -171 469
-114 77 26 124 55 177 109 55 55 62 65 91 120 130 251 -12 577 -283 649 -80
21 -170 23 -245 3z"/>
</g>
</svg>
